<svg width="1200" height="630" viewBox="0 0 1200 630" fill="none" xmlns="http://www.w3.org/2000/svg" role="img" aria-labelledby="title desc">
  <title id="title">Ningi Detection Lab social card</title>
  <desc id="desc">Open Graph social card for ningi.dev matching the Ningi Detection Lab visual style.</desc>
  <defs>
    <linearGradient id="bg" x1="92" y1="44" x2="1014" y2="622" gradientUnits="userSpaceOnUse">
      <stop stop-color="#10263A"/>
      <stop offset="0.52" stop-color="#09121C"/>
      <stop offset="1" stop-color="#04070B"/>
    </linearGradient>
    <linearGradient id="ring" x1="816" y1="130" x2="1074" y2="448" gradientUnits="userSpaceOnUse">
      <stop stop-color="#67E0FF"/>
      <stop offset="1" stop-color="#109BC8"/>
    </linearGradient>
    <linearGradient id="mark" x1="850" y1="176" x2="1026" y2="410" gradientUnits="userSpaceOnUse">
      <stop stop-color="#F4FBFF"/>
      <stop offset="0.55" stop-color="#D6F4FF"/>
      <stop offset="1" stop-color="#83DEFF"/>
    </linearGradient>
  </defs>

  <rect width="1200" height="630" fill="url(#bg)"/>
  <g opacity="0.18">
    <path d="M-48 96L416 560" stroke="#22455F" stroke-width="9"/>
    <path d="M142 -36L716 538" stroke="#22455F" stroke-width="9"/>
    <path d="M462 -78L1090 550" stroke="#22455F" stroke-width="9"/>
    <path d="M820 -90L1374 464" stroke="#22455F" stroke-width="9"/>
  </g>
  <g opacity="0.22">
    <path d="M0 128H1200" stroke="#2A536E" stroke-width="2"/>
    <path d="M0 232H1200" stroke="#2A536E" stroke-width="2"/>
    <path d="M0 336H1200" stroke="#2A536E" stroke-width="2"/>
    <path d="M0 440H1200" stroke="#2A536E" stroke-width="2"/>
    <path d="M0 544H1200" stroke="#2A536E" stroke-width="2"/>
    <path d="M168 0V630" stroke="#2A536E" stroke-width="2"/>
    <path d="M328 0V630" stroke="#2A536E" stroke-width="2"/>
    <path d="M488 0V630" stroke="#2A536E" stroke-width="2"/>
    <path d="M648 0V630" stroke="#2A536E" stroke-width="2"/>
    <path d="M808 0V630" stroke="#2A536E" stroke-width="2"/>
    <path d="M968 0V630" stroke="#2A536E" stroke-width="2"/>
    <path d="M1128 0V630" stroke="#2A536E" stroke-width="2"/>
  </g>

  <text x="82" y="244" fill="#F2FAFF" font-family="Segoe UI, Arial, sans-serif" font-size="72" font-weight="800">Ningi Detection Lab</text>
  <text x="86" y="313" fill="#7BDFFF" font-family="Segoe UI, Arial, sans-serif" font-size="28" font-weight="700" letter-spacing="2">LIVE SECURITY RESEARCH LAB</text>
  <text x="86" y="382" fill="#B3D3E2" font-family="Segoe UI, Arial, sans-serif" font-size="31">detections, honeypots, incident response</text>
  <text x="86" y="441" fill="#89AFC1" font-family="Segoe UI, Arial, sans-serif" font-size="25">detections, tooling, and lessons from the lab</text>
  <text x="86" y="493" fill="#5F879A" font-family="Segoe UI, Arial, sans-serif" font-size="23">www.ningi.dev | troy@ningi.dev</text>

  <g opacity="0.95">
    <circle cx="956" cy="318" r="150" fill="#06101A"/>
    <circle cx="956" cy="318" r="141" stroke="url(#ring)" stroke-width="9"/>
    <path d="M864 405V231H905L1007 354V231H1050V405H1009L906 280V405H864Z" fill="url(#mark)"/>
    <circle cx="1072" cy="224" r="11" fill="#FF8A5B"/>
  </g>
</svg>
